<svg width="49" height="48" viewBox="0 0 49 48" fill="none" xmlns="http://www.w3.org/2000/svg">
<circle opacity="0.5" cx="24.666" cy="24" r="24" fill="#DCFCE7"/>
<path d="M28.6127 21.2194C28.6824 21.289 28.7377 21.3717 28.7755 21.4628C28.8132 21.5538 28.8326 21.6514 28.8326 21.75C28.8326 21.8486 28.8132 21.9462 28.7755 22.0372C28.7377 22.1283 28.6824 22.211 28.6127 22.2806L23.3627 27.5306C23.293 27.6004 23.2103 27.6557 23.1192 27.6934C23.0282 27.7312 22.9306 27.7506 22.832 27.7506C22.7335 27.7506 22.6359 27.7312 22.5448 27.6934C22.4538 27.6557 22.3711 27.6004 22.3014 27.5306L20.0514 25.2806C19.9107 25.1399 19.8316 24.949 19.8316 24.75C19.8316 24.551 19.9107 24.3601 20.0514 24.2194C20.1921 24.0786 20.383 23.9996 20.582 23.9996C20.7811 23.9996 20.9719 24.0786 21.1127 24.2194L22.832 25.9397L27.5514 21.2194C27.6211 21.1496 27.7038 21.0943 27.7948 21.0566C27.8859 21.0188 27.9835 20.9994 28.082 20.9994C28.1806 20.9994 28.2782 21.0188 28.3692 21.0566C28.4603 21.0943 28.543 21.1496 28.6127 21.2194ZM34.082 24C34.082 25.9284 33.5102 27.8134 32.4389 29.4168C31.3675 31.0202 29.8448 32.2699 28.0632 33.0078C26.2816 33.7458 24.3212 33.9389 22.4299 33.5627C20.5386 33.1865 18.8013 32.2579 17.4377 30.8943C16.0742 29.5307 15.1456 27.7934 14.7694 25.9021C14.3932 24.0108 14.5863 22.0504 15.3242 20.2688C16.0622 18.4873 17.3118 16.9645 18.9152 15.8932C20.5186 14.8218 22.4037 14.25 24.332 14.25C26.9171 14.2527 29.3954 15.2808 31.2233 17.1087C33.0512 18.9366 34.0793 21.415 34.082 24ZM32.582 24C32.582 22.3683 32.0982 20.7733 31.1917 19.4165C30.2851 18.0598 28.9967 17.0024 27.4892 16.378C25.9817 15.7536 24.3229 15.5902 22.7225 15.9085C21.1222 16.2268 19.6522 17.0126 18.4984 18.1664C17.3446 19.3202 16.5589 20.7902 16.2406 22.3905C15.9222 23.9908 16.0856 25.6496 16.71 27.1571C17.3345 28.6646 18.3919 29.9531 19.7486 30.8596C21.1053 31.7661 22.7003 32.25 24.332 32.25C26.5193 32.2475 28.6163 31.3775 30.1629 29.8309C31.7096 28.2843 32.5796 26.1873 32.582 24Z" fill="#22C55E"/>
</svg>
