<svg width="49" height="48" viewBox="0 0 49 48" fill="none" xmlns="http://www.w3.org/2000/svg">
<circle opacity="0.5" cx="25" cy="24" r="24" fill="#DCFCE7"/>
<path d="M29.4874 18.7085C29.4874 19.0022 29.4292 19.293 29.3162 19.5643C29.2033 19.8356 29.0377 20.0821 28.8289 20.2897C28.6201 20.4974 28.3723 20.6621 28.0995 20.7745C27.8267 20.8869 27.5344 20.9447 27.2391 20.9447C26.9439 20.9447 26.6515 20.8869 26.3787 20.7745C26.106 20.6621 25.8581 20.4974 25.6493 20.2897C25.4406 20.0821 25.275 19.8356 25.162 19.5643C25.049 19.293 24.9908 19.0022 24.9908 18.7085C24.9908 18.1154 25.2277 17.5467 25.6493 17.1273C26.071 16.7079 26.6428 16.4723 27.2391 16.4723C27.8354 16.4723 28.4072 16.7079 28.8289 17.1273C29.2505 17.5467 29.4874 18.1154 29.4874 18.7085ZM27.9885 18.7085C27.9885 18.5108 27.9096 18.3212 27.769 18.1814C27.6285 18.0417 27.4379 17.9631 27.2391 17.9631C27.0403 17.9631 26.8497 18.0417 26.7092 18.1814C26.5686 18.3212 26.4897 18.5108 26.4897 18.7085C26.4897 18.9062 26.5686 19.0958 26.7092 19.2356C26.8497 19.3754 27.0403 19.4539 27.2391 19.4539C27.4379 19.4539 27.6285 19.3754 27.769 19.2356C27.9096 19.0958 27.9885 18.9062 27.9885 18.7085ZM13 16.4723C13 15.2862 13.4737 14.1486 14.317 13.3099C15.1603 12.4712 16.304 12 17.4966 12H29.4874C30.6799 12 31.8237 12.4712 32.6669 13.3099C33.5102 14.1486 33.9839 15.2862 33.9839 16.4723V20.9492C33.4728 20.973 32.9647 21.0863 32.4851 21.2906V16.4723C32.4851 15.6816 32.1693 14.9232 31.6071 14.3641C31.0449 13.8049 30.2824 13.4908 29.4874 13.4908H17.4966C16.7015 13.4908 15.939 13.8049 15.3769 14.3641C14.8147 14.9232 14.4989 15.6816 14.4989 16.4723V29.63C14.4991 29.6886 14.5167 29.7458 14.5495 29.7946C14.5822 29.8433 14.6287 29.8813 14.6831 29.9039C14.7375 29.9265 14.7973 29.9326 14.8552 29.9216C14.9131 29.9105 14.9664 29.8827 15.0085 29.8417L16.218 28.655L16.215 28.6505L17.7858 27.115L18.0946 26.8139L21.9167 23.0795C22.3371 22.6689 22.9028 22.4388 23.492 22.4388C24.0812 22.4388 24.6469 22.6689 25.0673 23.0795L27.6828 25.6347L26.6231 26.6902L24.0166 24.1424C23.8765 24.0058 23.6881 23.9293 23.492 23.9293C23.2958 23.9293 23.1075 24.0058 22.9674 24.1424L18.8365 28.178L16.0622 30.9031C14.926 32.0182 13 31.2162 13 29.63V16.4723ZM13.5995 32.9231C14.1526 33.1974 14.8436 33.4225 15.4236 33.2958C15.7999 33.2123 16.2885 33.0081 16.8371 32.7785C18.1635 32.2225 19.8393 31.5218 21.1268 32.0376C22.0816 32.4192 22.0021 33.5001 21.7338 34.0203C21.6814 34.1187 21.7218 34.2589 21.8312 34.2842C22.3794 34.395 22.9391 34.4391 23.498 34.4154C23.504 34.345 23.5155 34.2753 23.5324 34.2067L24.0945 31.9735C24.2383 31.3975 24.5379 30.8716 24.9608 30.4529L32.2003 23.2524C32.4599 22.9903 32.7691 22.7819 33.11 22.6392C33.4509 22.4965 33.8169 22.4223 34.1868 22.421C34.5567 22.4196 34.9232 22.4911 35.2652 22.6313C35.6072 22.7715 35.9179 22.9776 36.1794 23.2378C36.4409 23.498 36.6481 23.8072 36.7889 24.1474C36.9297 24.4876 37.0015 24.8521 37 25.22C36.9985 25.5879 36.9238 25.9519 36.7802 26.291C36.6366 26.63 36.4269 26.9375 36.1633 27.1955L28.9238 34.3945C28.5021 34.8142 27.9737 35.112 27.395 35.2562L25.5634 35.7109C23.8832 36.1999 21.3756 36.0418 20.5977 35.4381C19.9247 34.9163 19.8977 34.1158 20.124 33.5835C20.175 33.4643 20.0851 33.3107 19.9577 33.3301C19.2157 33.4345 18.6087 33.7028 18.0092 33.9667C17.1323 34.3543 16.2765 34.7314 15.0474 34.5794C13.9817 34.4482 13.3882 33.8951 13.0615 33.3495C12.8786 33.0454 13.2803 32.7651 13.5995 32.9231Z" fill="#22C55E"/>
</svg>
