<svg width="49" height="48" viewBox="0 0 49 48" fill="none" xmlns="http://www.w3.org/2000/svg">
<circle opacity="0.5" cx="24.666" cy="24" r="24" fill="#DCFCE7"/>
<path d="M33.332 16.5H15.332C14.9342 16.5 14.5527 16.658 14.2714 16.9393C13.9901 17.2206 13.832 17.6022 13.832 18V20.25C13.832 20.6478 13.9901 21.0294 14.2714 21.3107C14.5527 21.592 14.9342 21.75 15.332 21.75V30C15.332 30.3978 15.4901 30.7794 15.7714 31.0607C16.0527 31.342 16.4342 31.5 16.832 31.5H31.832C32.2299 31.5 32.6114 31.342 32.8927 31.0607C33.174 30.7794 33.332 30.3978 33.332 30V21.75C33.7299 21.75 34.1114 21.592 34.3927 21.3107C34.674 21.0294 34.832 20.6478 34.832 20.25V18C34.832 17.6022 34.674 17.2206 34.3927 16.9393C34.1114 16.658 33.7299 16.5 33.332 16.5ZM31.832 30H16.832V21.75H31.832V30ZM33.332 20.25H15.332V18H33.332V20.25ZM21.332 24.75C21.332 24.5511 21.411 24.3603 21.5517 24.2197C21.6924 24.079 21.8831 24 22.082 24H26.582C26.7809 24 26.9717 24.079 27.1124 24.2197C27.253 24.3603 27.332 24.5511 27.332 24.75C27.332 24.9489 27.253 25.1397 27.1124 25.2803C26.9717 25.421 26.7809 25.5 26.582 25.5H22.082C21.8831 25.5 21.6924 25.421 21.5517 25.2803C21.411 25.1397 21.332 24.9489 21.332 24.75Z" fill="#22C55E"/>
</svg>
