<svg width="49" height="48" viewBox="0 0 49 48" fill="none" xmlns="http://www.w3.org/2000/svg">
<circle opacity="0.5" cx="25" cy="24" r="24" fill="#DCFCE7"/>
<path d="M24.6662 14.25C22.9829 14.2496 21.3281 14.6851 19.8631 15.514C18.398 16.3428 17.1724 17.5369 16.3057 18.98C15.439 20.423 14.9607 22.0659 14.9173 23.7486C14.8739 25.4314 15.2669 27.0967 16.0581 28.5825L14.994 31.7747C14.9059 32.039 14.8931 32.3226 14.9571 32.5938C15.0211 32.8649 15.1593 33.1129 15.3563 33.3099C15.5533 33.5069 15.8013 33.6451 16.0724 33.7091C16.3436 33.7731 16.6272 33.7603 16.8915 33.6722L20.0837 32.6081C21.3913 33.3036 22.8401 33.6921 24.3203 33.744C25.8004 33.7959 27.2729 33.51 28.6261 32.9079C29.9792 32.3057 31.1774 31.4033 32.1296 30.269C33.0819 29.1346 33.7632 27.7983 34.1219 26.3613C34.4806 24.9244 34.5072 23.4246 34.1998 21.9758C33.8923 20.527 33.2588 19.1673 32.3473 17.9999C31.4359 16.8325 30.2705 15.8881 28.9396 15.2384C27.6087 14.5886 26.1472 14.2506 24.6662 14.25ZM24.6662 32.25C23.2159 32.251 21.791 31.8691 20.5356 31.1428C20.4436 31.0895 20.3415 31.0563 20.2358 31.0455C20.1301 31.0347 20.0233 31.0464 19.9224 31.08L16.4162 32.25L17.5853 28.7438C17.619 28.643 17.6309 28.5362 17.6202 28.4305C17.6095 28.3248 17.5765 28.2226 17.5234 28.1306C16.614 26.5584 16.2489 24.7299 16.4847 22.929C16.7205 21.128 17.544 19.4552 18.8275 18.1701C20.111 16.8849 21.7828 16.0593 23.5835 15.8212C25.3841 15.5831 27.213 15.9459 28.7864 16.8533C30.3599 17.7607 31.5898 19.162 32.2856 20.8398C32.9813 22.5176 33.1039 24.3781 32.6344 26.1327C32.1649 27.8873 31.1294 29.4379 29.6887 30.5439C28.248 31.65 26.4825 32.2497 24.6662 32.25Z" fill="#22C55E"/>
</svg>
