<svg width="49" height="48" viewBox="0 0 49 48" fill="none" xmlns="http://www.w3.org/2000/svg">
<circle opacity="0.5" cx="24.334" cy="24" r="24" fill="#DCFCE7"/>
<path d="M26.8744 30.4162L23.8744 34.9162C23.8197 34.9981 23.7494 35.0686 23.6676 35.1234C23.5857 35.1782 23.4938 35.2164 23.3972 35.2357C23.202 35.2748 22.9993 35.2347 22.8337 35.1243C22.6682 35.0139 22.5532 34.8422 22.5142 34.6471C22.4751 34.4519 22.5152 34.2492 22.6256 34.0837L25.6256 29.5837C25.736 29.4181 25.9077 29.3031 26.1028 29.2641C26.298 29.225 26.5007 29.2651 26.6663 29.3755C26.8318 29.4859 26.9468 29.6576 26.9858 29.8527C27.0249 30.0479 26.9848 30.2506 26.8744 30.4162ZM33.75 20.6249C33.748 22.514 32.9967 24.3251 31.6609 25.6608C30.3252 26.9966 28.5141 27.7479 26.625 27.7499H24.4012L21.6244 31.9162C21.5697 31.9981 21.4994 32.0686 21.4176 32.1234C21.3357 32.1782 21.2438 32.2164 21.1472 32.2357C21.0505 32.2551 20.951 32.2552 20.8544 32.236C20.7577 32.2169 20.6657 32.1789 20.5837 32.1243C20.5018 32.0696 20.4313 31.9993 20.3765 31.9175C20.3217 31.8356 20.2835 31.7437 20.2642 31.6471C20.2448 31.5504 20.2447 31.4509 20.2639 31.3543C20.283 31.2576 20.321 31.1656 20.3756 31.0837L22.5984 27.7499H19.125C17.8321 27.7499 16.5921 27.2363 15.6779 26.322C14.7636 25.4078 14.25 24.1678 14.25 22.8749C14.25 21.582 14.7636 20.342 15.6779 19.4278C16.5921 18.5135 17.8321 17.9999 19.125 17.9999C19.4053 18.0001 19.685 18.024 19.9612 18.0712C20.5594 16.5175 21.6822 15.222 23.1351 14.4092C24.588 13.5963 26.2794 13.3173 27.9164 13.6205C29.5534 13.9237 31.0327 14.7899 32.0982 16.0692C33.1636 17.3484 33.7479 18.9601 33.75 20.6249ZM32.25 20.6249C32.244 19.1643 31.6707 17.7632 30.6511 16.7174C29.6315 15.6716 28.2454 15.0629 26.7855 15.0199C25.3255 14.9768 23.9059 15.5027 22.8265 16.4866C21.747 17.4705 21.0921 18.8354 21 20.293C20.9943 20.3915 20.9693 20.4879 20.9264 20.5768C20.8835 20.6656 20.8235 20.7451 20.7498 20.8107C20.6011 20.9433 20.4058 21.0113 20.2069 20.9999C20.008 20.9885 19.8217 20.8985 19.6892 20.7497C19.5566 20.601 19.4886 20.4057 19.5 20.2068C19.5131 19.978 19.5372 19.7521 19.5722 19.529C19.4239 19.5099 19.2745 19.5002 19.125 19.4999C18.2299 19.4999 17.3714 19.8555 16.7385 20.4884C16.1056 21.1214 15.75 21.9798 15.75 22.8749C15.75 23.77 16.1056 24.6285 16.7385 25.2614C17.3714 25.8943 18.2299 26.2499 19.125 26.2499H26.625C28.1163 26.2482 29.546 25.655 30.6006 24.6005C31.6551 23.5459 32.2483 22.1162 32.25 20.6249Z" fill="#22C55E"/>
</svg>
