<svg width="49" height="48" viewBox="0 0 49 48" fill="none" xmlns="http://www.w3.org/2000/svg">
<circle opacity="0.5" cx="24.334" cy="24" r="24" fill="#DCFCE7"/>
<path d="M33.75 15H32.25V13.8004C32.25 13.2225 31.8158 12.75 31.2863 12.75H26.4623C25.9343 12.75 25.5 13.2225 25.5 13.8004V15H16.4779L14.25 19.5H15.7969V22.5H15.5464L14.2969 24L15.5464 25.5H15.8201V26.3055C15.8201 26.5091 15.9772 26.6737 16.1719 26.6737C16.7535 26.6737 17.2267 27.1703 17.2267 27.7804C17.2267 28.3905 16.7535 28.887 16.1719 28.887C15.5903 28.887 15.117 28.3905 15.117 27.7804C15.117 27.5768 14.9595 27.4121 14.7653 27.4121C14.5706 27.4121 14.4135 27.5768 14.4135 27.7804C14.4142 28.7981 15.2025 29.625 16.1719 29.625C17.1409 29.625 17.9299 28.7981 17.9299 27.7808C17.9299 26.8901 17.325 26.1446 16.5236 25.974V25.5H16.797L18.0469 24L16.797 22.5H16.5469V19.5H25.5V22.1996C25.5 22.6976 25.8229 23.115 26.25 23.2222V35.25H27.2344V33L30.5156 34.125L27.2344 35.25H31.5V23.2219C31.9275 23.115 32.25 22.6976 32.25 22.1996V19.5H33.75V18.375H32.9708L33.75 16.8956V15ZM15.9911 18.375L16.8671 16.5754L17.8144 18.375H15.9911ZM17.6494 16.125H19.2067L18.4283 17.6044L17.6494 16.125ZM19.0421 18.375L19.821 16.8956L20.6003 18.375H19.0421ZM20.4352 16.125H21.9926L21.2137 17.6044L20.4352 16.125ZM21.8284 18.375L22.6069 16.8956L23.3854 18.375H21.8284ZM23.2211 16.125H24.7785L24 17.6044L23.2211 16.125ZM25.5 18.375H24.6139L25.3924 16.8956L25.5 17.1V18.375ZM30.5156 33L27.2344 31.875L30.5156 30.75V33ZM27.2344 30.75V28.5L30.5156 29.6257L27.2344 30.75ZM30.5156 28.5L27.2344 27.375L30.5156 26.25V28.5ZM27.2344 26.25V24.0007L30.5156 25.125L27.2344 26.25ZM30.5156 24.0007L28.3275 23.25H30.5156V24.0007ZM31.0781 17.718C31.0781 18.0791 30.8246 18.375 30.5156 18.375H27.1399C26.8309 18.375 26.5781 18.0791 26.5781 17.718V14.5343C26.5781 14.1709 26.8309 13.875 27.1399 13.875H30.5156C30.8246 13.875 31.0781 14.1709 31.0781 14.5343V17.718ZM32.3569 17.6044L32.25 17.4011V16.125H33.1354L32.3569 17.6044Z" fill="#22C55E"/>
</svg>
